<svg width="20" height="20" viewBox="0 0 20 20" fill="none" xmlns="http://www.w3.org/2000/svg">
<path opacity="0.5" d="M8.35283 1.66663C7.54745 1.66663 6.89453 2.31954 6.89453 3.12496C6.89453 3.93038 7.54745 4.58329 8.35283 4.58329H11.6862C12.4916 4.58329 13.1445 3.93038 13.1445 3.12496C13.1445 2.31954 12.4916 1.66663 11.6862 1.66663H8.35283Z" fill="#0A0A0A"/>
<path opacity="0.5" d="M3.23892 13.5043C2.52397 10.6445 2.16649 9.21454 2.91718 8.25309C3.66787 7.29163 5.1418 7.29163 8.08963 7.29163H11.9485C14.8964 7.29163 16.3703 7.29163 17.121 8.25309C17.8717 9.21454 17.5142 10.6445 16.7992 13.5043C16.3445 15.3232 16.1172 16.2326 15.439 16.7621C14.7608 17.2916 13.8234 17.2916 11.9485 17.2916H8.08963C6.21476 17.2916 5.27732 17.2916 4.59917 16.7621C3.92101 16.2326 3.69365 15.3232 3.23892 13.5043Z" fill="#0A0A0A"/>
<path d="M13.0032 3.75192C13.0938 3.562 13.1444 3.34942 13.1444 3.12499C13.1444 2.90162 13.0943 2.68997 13.0045 2.50073C13.5741 2.50487 14.018 2.53102 14.4143 2.6859C14.8878 2.87096 15.2997 3.18554 15.6028 3.59367C15.9085 4.00541 16.0521 4.53315 16.2496 5.25952L16.2883 5.4015L16.7155 7.87065C16.375 7.63571 15.9358 7.4961 15.3678 7.41314L15.0667 5.67313C14.8303 4.80671 14.7444 4.53442 14.5992 4.33894C14.436 4.11918 14.2143 3.94979 13.9593 3.85014C13.7761 3.77855 13.5548 3.75749 13.0032 3.75192Z" fill="#0A0A0A"/>
<path d="M7.03444 2.50073C6.94467 2.68997 6.89445 2.90162 6.89445 3.12499C6.89445 3.34942 6.94514 3.562 7.0357 3.75192C6.48416 3.75749 6.26284 3.77855 6.07968 3.85014C5.82472 3.94979 5.60296 4.11918 5.43975 4.33894C5.29458 4.53442 5.20874 4.80671 4.97226 5.67313L4.67118 7.41307C4.10323 7.49597 3.66406 7.63549 3.32349 7.87027L3.75069 5.4015L3.78934 5.25953C3.98691 4.53316 4.13044 4.00541 4.43622 3.59367C4.73932 3.18554 5.15116 2.87096 5.62465 2.6859C6.02093 2.53102 6.46486 2.50487 7.03444 2.50073Z" fill="#0A0A0A"/>
</svg>
