<svg width="24" height="24" viewBox="0 0 24 24" fill="none" xmlns="http://www.w3.org/2000/svg">
<path fill-rule="evenodd" clip-rule="evenodd" d="M1.28869 2.76303C1.41968 2.37007 1.84442 2.1577 2.23737 2.28869L2.50229 2.37699C2.51549 2.38139 2.52864 2.38578 2.54176 2.39015C3.16813 2.59891 3.69746 2.77534 4.11369 2.96897C4.55613 3.1748 4.94002 3.42989 5.23112 3.83376C5.52221 4.23764 5.64282 4.6825 5.69817 5.16732C5.75025 5.62342 5.75023 6.18138 5.7502 6.84163V9.5002C5.7502 10.9356 5.7518 11.9367 5.85335 12.692C5.952 13.4258 6.13245 13.8144 6.40921 14.0912C6.68598 14.3679 7.07455 14.5484 7.80832 14.647C8.56367 14.7486 9.56479 14.7502 11.0002 14.7502H18.0002C18.4144 14.7502 18.7502 15.0859 18.7502 15.5002C18.7502 15.9144 18.4144 16.2502 18.0002 16.2502H10.9453C9.57774 16.2502 8.47542 16.2502 7.60845 16.1336C6.70834 16.0126 5.95047 15.7537 5.34855 15.1518C4.74664 14.5499 4.48774 13.792 4.36673 12.8919C4.25017 12.0249 4.25018 10.9226 4.2502 9.55508V6.88324C4.2502 6.17024 4.24907 5.69847 4.20785 5.33746C4.16883 4.99562 4.10068 4.83073 4.01426 4.71083C3.92784 4.59093 3.79296 4.47413 3.481 4.32901C3.15155 4.17575 2.70435 4.02548 2.02794 3.80002L1.76303 3.71171C1.37008 3.58073 1.15771 3.15599 1.28869 2.76303Z" fill="#0A0A0A"/>
<path opacity="0.4" d="M5.74609 6C5.75105 6.25912 5.75105 6.53957 5.75104 6.8414L5.75103 9.5C5.75103 10.9354 5.75263 11.9365 5.85418 12.6919C5.869 12.8021 5.88567 12.9046 5.90423 13H16.0231C16.9825 13 17.4622 13 17.8379 12.7523C18.2136 12.5045 18.4026 12.0636 18.7805 11.1818L19.2091 10.1818C20.0186 8.29294 20.4233 7.34853 19.9787 6.67426C19.5341 6 18.5066 6 16.4517 6H5.74609Z" fill="#0A0A0A"/>
<path d="M7.5 18C8.32843 18 9 18.6716 9 19.5C9 20.3284 8.32843 21 7.5 21C6.67157 21 6 20.3284 6 19.5C6 18.6716 6.67157 18 7.5 18Z" fill="#0A0A0A"/>
<path d="M18 19.5C18 18.6715 17.3284 18 16.5 18C15.6716 18 15 18.6715 15 19.5C15 20.3284 15.6716 21 16.5 21C17.3284 21 18 20.3284 18 19.5Z" fill="#0A0A0A"/>
</svg>
