<svg width="24" height="24" viewBox="0 0 24 24" fill="none" xmlns="http://www.w3.org/2000/svg">
<path opacity="0.4" fill-rule="evenodd" clip-rule="evenodd" d="M8.94634 21.1315L8.89153 21.0787L8.89059 21.0778C8.81297 21.0023 8.7341 20.9254 8.65418 20.8471C7.28264 19.5029 5.57246 17.7231 4.35023 15.6268C3.12338 13.5227 2.35406 11.04 2.963 8.32592C5.09157 -1.11519 18.9199 -1.10413 21.0374 8.33595C21.6641 11.1292 20.8312 13.6741 19.5405 15.8149C18.2547 17.9477 16.4749 19.7455 15.0994 21.0783C14.0958 22.0555 13.1261 22.7323 12.0298 22.7449C10.9285 22.7576 9.95486 22.098 8.95063 21.1357L8.94634 21.1315Z" fill="#0A0A0A"/>
<path fill-rule="evenodd" clip-rule="evenodd" d="M8.75 9.5C8.75 7.70507 10.2051 6.25 12 6.25C13.7949 6.25 15.25 7.70507 15.25 9.5C15.25 11.2949 13.7949 12.75 12 12.75C10.2051 12.75 8.75 11.2949 8.75 9.5Z" fill="#0A0A0A"/>
</svg>
