<svg width="221" height="223" viewBox="0 0 221 223" fill="none" xmlns="http://www.w3.org/2000/svg">
<path d="M43.2221 186.84C10.7203 158.011 1.1344 112.553 18.8427 72.7234C28.5018 50.9953 45.7771 32.1695 66.8149 20.9617C126.605 -10.8912 197.371 31.0561 209.225 94.5794C217.384 138.267 193.145 180.908 154.722 201.133C117.58 220.683 74.2726 214.379 43.2221 186.834V186.84ZM55.3204 177.555C76.785 199.362 110.104 213.552 140.203 201.297C165.827 190.868 185.913 166.591 189.145 138.821C191.023 122.715 184.645 110.813 166.839 118.139C152.82 123.907 141.008 136.679 128.611 145.252C119.818 151.33 101.238 162.514 91.237 154.202C82.3585 146.822 90.8345 131.16 95.2311 123.287C107.872 100.646 124.275 81.8869 125.172 54.4088C125.91 31.7862 113.775 16.3739 89.9321 18.899C57.107 22.3794 33.0813 57.299 27.9652 87.5821C22.5075 119.916 32.2886 154.16 55.3204 177.561V177.555ZM157.094 39.5563C149.801 33.0457 140.374 27.3566 131.404 23.4016C128.715 22.2151 125.105 20.6879 122.147 21.3815C121.861 21.4485 121.739 21.8014 121.922 22.0326C123.916 24.6307 128.093 26.9185 130.672 29.7114C158.003 59.3556 132.922 104.978 111.433 130.211C106.537 135.961 100.116 141.772 96.2312 148.191C94.7921 150.57 93.7311 153.57 96.8471 155.219C101.939 157.914 112.476 152.097 116.988 149.359C126.483 143.609 134.544 136.009 143.289 129.377C151.521 123.128 161.912 114.768 172.626 114.141C180.876 113.661 188.377 116.435 192.499 123.798C192.639 124.047 192.999 124.053 193.139 123.798C193.139 123.798 193.139 123.798 193.139 123.792C193.377 123.372 193.657 121.114 193.7 120.512C193.865 118.072 193.59 114.957 193.352 112.492C190.645 84.558 177.998 58.2117 157.082 39.5502L157.094 39.5563Z" fill="#0A0A0A"/>
</svg>
