<svg width="589" height="223" viewBox="0 0 589 223" fill="none" xmlns="http://www.w3.org/2000/svg">
<path d="M283.221 66.025H298.873C302.301 66.025 305.5 66.482 308.47 67.396C311.441 68.31 313.954 69.681 316.011 71.509C318.143 73.2608 319.819 75.4697 321.038 78.1355C322.256 80.8013 322.866 83.9242 322.866 87.504C322.866 91.0077 322.066 94.4352 320.467 97.7865C318.867 101.062 316.62 103.766 313.726 105.898C310.908 108.031 307.556 109.173 303.672 109.326C305.347 109.935 307.023 111.116 308.699 112.867C310.374 114.619 311.822 116.333 313.04 118.009C313.04 118.085 313.497 118.808 314.411 120.179C315.401 121.55 316.62 123.264 318.067 125.321C319.514 127.301 320.962 129.281 322.409 131.262C323.932 133.242 325.265 134.88 326.408 136.174C327.931 138.002 329.416 139.564 330.863 140.859C332.387 142.077 333.986 143.068 335.662 143.829C337.414 144.515 339.356 144.857 341.489 144.857V146H333.491C329.835 146 326.598 145.543 323.78 144.629C320.962 143.639 318.524 142.344 316.468 140.744C314.411 139.069 312.659 137.279 311.212 135.375C310.908 134.842 310.26 133.851 309.27 132.404C308.356 130.957 307.29 129.319 306.071 127.491C304.929 125.587 303.786 123.721 302.644 121.893C301.501 120.065 300.511 118.504 299.673 117.209C298.835 115.838 298.302 114.962 298.074 114.581C296.779 112.525 295.332 110.773 293.732 109.326C292.133 107.802 290.381 107.003 288.477 106.926V105.784C288.553 105.784 289.086 105.822 290.076 105.898C291.142 105.898 292.361 105.86 293.732 105.784C295.712 105.708 297.807 105.365 300.016 104.756C302.301 104.146 304.357 102.966 306.185 101.214C308.089 99.4622 309.499 96.8725 310.413 93.445C310.641 92.6833 310.793 91.7312 310.87 90.5887C311.022 89.4462 311.06 88.2657 310.984 87.047C310.908 81.7915 309.575 77.7166 306.985 74.8222C304.472 71.8517 301.158 70.2903 297.045 70.138C295.293 69.9857 293.465 69.9476 291.561 70.0237C289.657 70.0237 288.02 70.0237 286.649 70.0237C285.278 70.0237 284.516 70.0237 284.364 70.0237C284.364 69.9476 284.249 69.6048 284.021 68.9955C283.868 68.31 283.678 67.6626 283.45 67.0532C283.297 66.3677 283.221 66.025 283.221 66.025ZM284.706 66.025V146H274.081V66.025H284.706ZM274.424 137.66V146H265.284V144.857C265.284 144.857 265.512 144.857 265.969 144.857C266.502 144.857 266.769 144.857 266.769 144.857C268.749 144.857 270.425 144.172 271.796 142.801C273.243 141.354 274.005 139.64 274.081 137.66H274.424ZM274.424 74.3652H274.081C274.005 72.3849 273.243 70.7092 271.796 69.3382C270.425 67.8911 268.749 67.1675 266.769 67.1675C266.769 67.1675 266.502 67.1675 265.969 67.1675C265.512 67.1675 265.284 67.1675 265.284 67.1675V66.025H274.424V74.3652ZM284.364 137.66H284.706C284.706 139.64 285.43 141.354 286.877 142.801C288.324 144.172 290.038 144.857 292.018 144.857C292.094 144.857 292.323 144.857 292.704 144.857C293.161 144.857 293.389 144.857 293.389 144.857V146H284.364V137.66ZM376.995 64.197L412.07 145.314H398.703L373.225 78.821L376.995 64.197ZM352.432 137.66C351.898 139.183 351.822 140.478 352.203 141.544C352.584 142.611 353.193 143.448 354.031 144.058C354.945 144.591 355.859 144.857 356.773 144.857H357.801V146H334.38V144.857C334.38 144.857 334.57 144.857 334.951 144.857C335.256 144.857 335.408 144.857 335.408 144.857C337.16 144.857 338.95 144.324 340.778 143.258C342.682 142.115 344.244 140.249 345.462 137.66H352.432ZM376.995 64.197L377.909 74.1367L349.347 145.657H341.921L371.283 76.993C371.359 76.8407 371.626 76.2694 372.083 75.2792C372.616 74.2129 373.149 72.9562 373.682 71.509C374.291 70.0618 374.825 68.6527 375.282 67.2817C375.739 65.9107 375.967 64.8825 375.967 64.197H376.995ZM391.734 116.181V120.065H356.773V116.181H391.734ZM395.732 137.66H408.643C409.861 140.249 411.385 142.115 413.213 143.258C415.117 144.324 416.945 144.857 418.697 144.857C418.697 144.857 418.849 144.857 419.154 144.857C419.458 144.857 419.611 144.857 419.611 144.857V146H390.363V144.857H391.391C392.914 144.857 394.247 144.248 395.39 143.029C396.532 141.735 396.646 139.945 395.732 137.66ZM413.895 66.7105H426.349L446.571 129.434L443.029 147.6L413.895 66.7105ZM467.136 64.197L468.393 74.1367L446.571 134.918C446.571 134.918 446.342 135.603 445.885 136.974C445.504 138.269 445.124 139.869 444.743 141.773C444.362 143.677 444.133 145.619 444.057 147.6H443.029L440.516 136.289L466.108 64.197H467.136ZM467.136 64.3112L491.471 127.72L487.929 147.6L461.88 80.192L467.136 64.3112ZM512.722 66.7105L491.357 134.918C491.357 134.918 491.166 135.603 490.786 136.974C490.405 138.345 490.024 140.021 489.643 142.001C489.262 143.905 489.072 145.771 489.072 147.6H487.929L485.987 136.289L505.867 66.7105H512.722ZM503.696 74.251C504.305 71.966 504.115 70.2142 503.125 68.9955C502.134 67.7768 500.878 67.1675 499.354 67.1675H498.326V66.025H521.29V67.1675C521.29 67.1675 521.138 67.1675 520.833 67.1675C520.529 67.1675 520.376 67.1675 520.376 67.1675C518.625 67.1675 516.72 67.7387 514.664 68.8812C512.607 69.9476 511.16 71.7375 510.322 74.251H503.696ZM428.862 74.251H416.637C415.723 71.7375 414.238 69.9476 412.182 68.8812C410.201 67.7387 408.335 67.1675 406.583 67.1675C406.583 67.1675 406.431 67.1675 406.126 67.1675C405.822 67.1675 405.669 67.1675 405.669 67.1675V66.025H434.232V67.1675H433.204C431.756 67.1675 430.462 67.7768 429.319 68.9955C428.253 70.2142 428.1 71.966 428.862 74.251ZM545.002 66.025V146H534.376V66.025H545.002ZM575.621 142.001L576.535 146H544.659V142.001H575.621ZM570.936 104.641V108.526H544.659V104.641H570.936ZM576.078 66.025V70.0237H544.659V66.025H576.078ZM583.047 125.892L576.877 146H556.769L560.882 142.001C564.843 142.001 568.156 141.354 570.822 140.059C573.488 138.688 575.697 136.784 577.449 134.346C579.201 131.909 580.686 129.091 581.904 125.892H583.047ZM570.936 108.297V116.98H569.794V115.495C569.794 113.591 569.147 111.953 567.852 110.582C566.557 109.211 564.919 108.526 562.939 108.526V108.297H570.936ZM570.936 96.187V104.87H562.939V104.641C564.919 104.565 566.557 103.842 567.852 102.471C569.147 101.1 569.794 99.4622 569.794 97.558V96.187H570.936ZM576.078 69.681V80.192H574.935V78.364C574.935 76.0028 574.135 74.0225 572.536 72.423C571.013 70.8235 569.032 69.9857 566.595 69.9095V69.681H576.078ZM576.078 63.9685V67.2817L562.139 66.025C563.815 66.025 565.567 65.9107 567.395 65.6822C569.299 65.4537 571.051 65.1872 572.65 64.8825C574.25 64.5778 575.392 64.2732 576.078 63.9685ZM534.719 137.66V146H525.579V144.857C525.579 144.857 525.808 144.857 526.265 144.857C526.798 144.857 527.064 144.857 527.064 144.857C529.045 144.857 530.72 144.172 532.091 142.801C533.539 141.354 534.3 139.64 534.376 137.66H534.719ZM534.719 74.3652H534.376C534.376 72.3849 533.653 70.7092 532.206 69.3382C530.759 67.8911 529.045 67.1675 527.064 67.1675C527.064 67.1675 526.836 67.1675 526.379 67.1675C525.922 67.1675 525.693 67.1675 525.693 67.1675L525.579 66.025H534.719V74.3652Z" fill="#0A0A0A"/>
<path d="M43.2221 186.84C10.7203 158.011 1.1344 112.553 18.8427 72.7234C28.5018 50.9953 45.7771 32.1695 66.8149 20.9617C126.605 -10.8912 197.371 31.0561 209.225 94.5794C217.384 138.267 193.145 180.908 154.722 201.133C117.58 220.683 74.2726 214.379 43.2221 186.834V186.84ZM55.3204 177.555C76.785 199.362 110.104 213.552 140.203 201.297C165.827 190.868 185.913 166.591 189.145 138.821C191.023 122.715 184.645 110.813 166.839 118.139C152.82 123.907 141.008 136.679 128.611 145.252C119.818 151.33 101.238 162.514 91.237 154.202C82.3585 146.822 90.8345 131.16 95.2311 123.287C107.872 100.646 124.275 81.8869 125.172 54.4088C125.91 31.7862 113.775 16.3739 89.9321 18.899C57.107 22.3794 33.0813 57.299 27.9652 87.5821C22.5075 119.916 32.2886 154.16 55.3204 177.561V177.555ZM157.094 39.5563C149.801 33.0457 140.374 27.3566 131.404 23.4016C128.715 22.2151 125.105 20.6879 122.147 21.3815C121.861 21.4485 121.739 21.8014 121.922 22.0326C123.916 24.6307 128.093 26.9185 130.672 29.7114C158.003 59.3556 132.922 104.978 111.433 130.211C106.537 135.961 100.116 141.772 96.2312 148.191C94.7921 150.57 93.7311 153.57 96.8471 155.219C101.939 157.914 112.476 152.097 116.988 149.359C126.483 143.609 134.544 136.009 143.289 129.377C151.521 123.128 161.912 114.768 172.626 114.141C180.876 113.661 188.377 116.435 192.499 123.798C192.639 124.047 192.999 124.053 193.139 123.798C193.139 123.798 193.139 123.798 193.139 123.792C193.377 123.372 193.657 121.114 193.7 120.512C193.865 118.072 193.59 114.957 193.352 112.492C190.645 84.558 177.998 58.2117 157.082 39.5502L157.094 39.5563Z" fill="#0A0A0A"/>
</svg>
