<svg width="24" height="24" viewBox="0 0 24 24" fill="none" xmlns="http://www.w3.org/2000/svg">
<path opacity="0.4" d="M15.5562 14.5477L15.1007 15.0272C15.1007 15.0272 14.0181 16.167 11.0631 13.0559C8.10812 9.94484 9.1907 8.80507 9.1907 8.80507L9.47752 8.50311C10.1841 7.75924 10.2507 6.56497 9.63424 5.6931L8.37326 3.90961C7.61028 2.8305 6.13596 2.68795 5.26145 3.60864L3.69185 5.26114C3.25823 5.71766 2.96765 6.30945 3.00289 6.96594C3.09304 8.64546 3.81071 12.259 7.81536 16.4752C12.0621 20.9462 16.0468 21.1239 17.6763 20.9631C18.1917 20.9122 18.6399 20.6343 19.0011 20.254L20.4217 18.7584C21.3806 17.7489 21.1102 16.0182 19.8833 15.312L17.9728 14.2123C17.1672 13.7486 16.1858 13.8848 15.5562 14.5477Z" fill="#0A0A0A"/>
<path d="M13.2595 1.87983C13.3257 1.47094 13.7122 1.19357 14.1211 1.25976C14.1464 1.26461 14.2279 1.27983 14.2705 1.28933C14.3559 1.30834 14.4749 1.33759 14.6233 1.38082C14.9201 1.46726 15.3347 1.60967 15.8323 1.8378C16.8286 2.29456 18.1544 3.09356 19.5302 4.46936C20.906 5.84516 21.705 7.17097 22.1617 8.16725C22.3899 8.66487 22.5323 9.07947 22.6187 9.37625C22.6619 9.52466 22.6912 9.64369 22.7102 9.72901C22.7197 9.77168 22.7267 9.80594 22.7315 9.83125L22.7373 9.86245C22.8034 10.2713 22.5286 10.6739 22.1197 10.7401C21.712 10.8061 21.3279 10.53 21.2601 10.1231C21.258 10.1121 21.2522 10.0828 21.2461 10.0551C21.2337 9.9997 21.2124 9.91188 21.1786 9.79572C21.1109 9.56339 20.9934 9.21806 20.7982 8.79238C20.4084 7.94207 19.7074 6.76789 18.4695 5.53002C17.2317 4.29216 16.0575 3.59117 15.2072 3.20134C14.7815 3.00618 14.4362 2.88865 14.2038 2.82097C14.0877 2.78714 13.9417 2.75363 13.8863 2.7413C13.4793 2.67347 13.1935 2.28755 13.2595 1.87983Z" fill="#0A0A0A"/>
<path fill-rule="evenodd" clip-rule="evenodd" d="M13.4861 5.32931C13.5999 4.93103 14.015 4.70041 14.4133 4.8142L14.2073 5.53535C14.4133 4.8142 14.4133 4.8142 14.4133 4.8142L14.4148 4.81462L14.4163 4.81507L14.4196 4.81603L14.4274 4.81835L14.4472 4.82452C14.4622 4.82934 14.4811 4.83562 14.5035 4.84359C14.5484 4.85953 14.6078 4.88219 14.6806 4.91339C14.8263 4.97583 15.0253 5.07224 15.2699 5.21695C15.7593 5.50663 16.4275 5.98781 17.2125 6.77278C17.9975 7.55776 18.4786 8.22594 18.7683 8.71541C18.913 8.95992 19.0094 9.15898 19.0719 9.30467C19.1031 9.37747 19.1258 9.43684 19.1417 9.48175C19.1497 9.5042 19.1559 9.52302 19.1608 9.5381L19.1669 9.5579L19.1692 9.56564L19.1702 9.56897L19.1706 9.57052C19.1706 9.57052 19.1711 9.57195 18.4499 9.77799L19.1711 9.57196C19.2849 9.97023 19.0542 10.3853 18.656 10.4991C18.2611 10.6119 17.8496 10.3862 17.7317 9.99414L17.728 9.98336C17.7227 9.96833 17.7117 9.93876 17.6932 9.89556C17.6562 9.80922 17.5891 9.66798 17.4775 9.47939C17.2545 9.10265 16.8518 8.5334 16.1518 7.83344C15.4519 7.13349 14.8826 6.7308 14.5059 6.50783C14.3173 6.39621 14.1761 6.3291 14.0897 6.2921C14.0465 6.27359 14.0169 6.26255 14.0019 6.25722L13.9911 6.25354C13.5991 6.13566 13.3733 5.7242 13.4861 5.32931Z" fill="#0A0A0A"/>
</svg>
