<svg width="24" height="24" viewBox="0 0 24 24" fill="none" xmlns="http://www.w3.org/2000/svg">
<path d="M21.4576 2.45538C21.3414 2.35504 21.2 2.28831 21.0487 2.26237C20.8974 2.23643 20.7419 2.25228 20.5989 2.3082L1.59949 9.74351C1.33023 9.84821 1.10226 10.0376 0.949919 10.283C0.797576 10.5285 0.729099 10.8168 0.754798 11.1046C0.780496 11.3923 0.898979 11.664 1.09241 11.8786C1.28584 12.0932 1.54375 12.2391 1.8273 12.2944L6.75011 13.261V18.7501C6.74915 19.0491 6.838 19.3414 7.00515 19.5893C7.17231 19.8372 7.41007 20.0292 7.68761 20.1404C7.96473 20.2535 8.26949 20.2807 8.56225 20.2183C8.85501 20.156 9.12224 20.007 9.32918 19.7907L11.7029 17.3288L15.4689 20.6251C15.7406 20.8661 16.091 20.9994 16.4542 21.0001C16.6133 20.9999 16.7715 20.975 16.9229 20.926C17.1704 20.8475 17.3929 20.7055 17.5684 20.5142C17.744 20.3229 17.8663 20.089 17.9232 19.8357L21.7286 3.28132C21.7626 3.13202 21.7554 2.97628 21.7076 2.83078C21.6599 2.68528 21.5735 2.55551 21.4576 2.45538ZM16.4561 19.5001L8.7048 12.7032L19.8611 4.70726L16.4561 19.5001Z" fill="#0A0A0A"/>
</svg>
