<svg width="24" height="24" viewBox="0 0 24 24" fill="none" xmlns="http://www.w3.org/2000/svg">
<path d="M20.7766 7.00762C19.6335 7.00762 18.5788 6.62892 17.7318 5.99006C16.7604 5.25769 16.0624 4.1834 15.816 2.94519C15.7549 2.63925 15.7221 2.32354 15.7189 2H12.4534V10.923L12.4495 15.8105C12.4495 17.1172 11.5986 18.2251 10.4191 18.6147C10.0767 18.7278 9.70704 18.7814 9.32208 18.7603C8.83071 18.7333 8.37024 18.585 7.97002 18.3456C7.11834 17.8362 6.5409 16.9122 6.52525 15.8551C6.5006 14.203 7.83623 12.856 9.48718 12.856C9.81307 12.856 10.126 12.9092 10.4191 13.0058V10.5669V9.69022C10.11 9.64445 9.79546 9.62059 9.4774 9.62059C7.67035 9.62059 5.98028 10.3717 4.77219 11.725C3.85908 12.7476 3.31137 14.0523 3.22687 15.4204C3.11615 17.2177 3.77379 18.9262 5.04917 20.1867C5.23657 20.3717 5.43335 20.5435 5.63913 20.7019C6.73259 21.5434 8.06939 21.9996 9.4774 21.9996C9.79546 21.9996 10.11 21.9761 10.4191 21.9303C11.7344 21.7355 12.9479 21.1334 13.9056 20.1867C15.0824 19.0236 15.7326 17.4794 15.7397 15.8359L15.7228 8.5373C16.2842 8.97038 16.8981 9.32874 17.5569 9.60689C18.5815 10.0392 19.6679 10.2583 20.786 10.2579V7.8867V7.00684C20.7868 7.00762 20.7774 7.00762 20.7766 7.00762Z" fill="#1A1A1A"/>
</svg>
