<svg width="318" height="329" viewBox="0 0 318 329" fill="none" xmlns="http://www.w3.org/2000/svg">
<path d="M91.6664 176.786C59.1646 147.957 49.5787 102.499 67.287 62.6689C76.9461 40.9408 94.2214 22.115 115.259 10.9072C175.049 -20.9457 245.815 21.0016 257.669 84.5249C265.828 128.213 241.589 170.854 203.166 191.079C166.024 210.629 122.717 204.325 91.6664 176.78V176.786ZM103.765 167.501C125.229 189.308 158.548 203.498 188.647 191.243C214.271 180.814 234.357 156.537 237.589 128.767C239.467 112.661 233.089 100.759 215.283 108.085C201.264 113.853 189.452 126.625 177.055 135.198C168.262 141.276 149.682 152.46 139.681 144.148C130.803 136.768 139.279 121.106 143.675 113.233C156.316 90.5915 172.719 71.8324 173.616 44.3543C174.354 21.7317 162.219 6.31944 138.376 8.84454C105.551 12.3249 81.5256 47.2445 76.4095 77.5276C70.9518 109.862 80.7329 144.106 103.765 167.507V167.501ZM205.538 29.5018C198.245 22.9912 188.818 17.3021 179.848 13.3471C177.159 12.1606 173.549 10.6334 170.591 11.327C170.305 11.394 170.183 11.7469 170.366 11.9781C172.36 14.5762 176.537 16.864 179.116 19.6569C206.447 49.3011 181.366 94.9235 159.877 120.157C154.981 125.907 148.56 131.718 144.676 138.137C143.236 140.516 142.175 143.516 145.291 145.165C150.383 147.86 160.92 142.043 165.432 139.305C174.927 133.555 182.988 125.955 191.733 119.323C199.965 113.074 210.356 104.714 221.07 104.087C229.32 103.607 236.821 106.381 240.943 113.744C241.083 113.993 241.443 113.999 241.583 113.744C241.583 113.744 241.583 113.744 241.583 113.738C241.821 113.318 242.101 111.06 242.144 110.458C242.309 108.018 242.034 104.903 241.796 102.438C239.089 74.5035 226.442 48.1572 205.526 29.4957L205.538 29.5018Z" fill="#0A0A0A"/>
<path d="M17.937 246.485H33.589C37.017 246.485 40.216 246.942 43.186 247.856C46.157 248.77 48.67 250.141 50.727 251.969C52.859 253.721 54.535 255.93 55.754 258.596C56.972 261.262 57.582 264.384 57.582 267.964C57.582 271.468 56.782 274.895 55.183 278.247C53.583 281.522 51.336 284.226 48.442 286.358C45.624 288.491 42.272 289.633 38.388 289.786C40.063 290.395 41.739 291.576 43.415 293.327C45.09 295.079 46.538 296.793 47.756 298.469C47.756 298.545 48.213 299.268 49.127 300.639C50.117 302.01 51.336 303.724 52.783 305.781C54.23 307.761 55.678 309.741 57.125 311.722C58.648 313.702 59.981 315.34 61.124 316.634C62.647 318.462 64.132 320.024 65.579 321.319C67.103 322.537 68.702 323.528 70.378 324.289C72.13 324.975 74.072 325.317 76.205 325.317V326.46H68.207C64.551 326.46 61.314 326.003 58.496 325.089C55.678 324.099 53.24 322.804 51.184 321.204C49.127 319.529 47.375 317.739 45.928 315.835C45.624 315.302 44.976 314.311 43.986 312.864C43.072 311.417 42.006 309.779 40.787 307.951C39.645 306.047 38.502 304.181 37.36 302.353C36.217 300.525 35.227 298.964 34.389 297.669C33.551 296.298 33.018 295.422 32.79 295.041C31.495 292.985 30.048 291.233 28.448 289.786C26.849 288.262 25.097 287.463 23.193 287.386V286.244C23.269 286.244 23.802 286.282 24.792 286.358C25.858 286.358 27.077 286.32 28.448 286.244C30.428 286.168 32.523 285.825 34.732 285.216C37.017 284.606 39.073 283.426 40.901 281.674C42.805 279.922 44.215 277.333 45.129 273.905C45.357 273.144 45.509 272.191 45.586 271.049C45.738 269.906 45.776 268.726 45.7 267.507C45.624 262.252 44.291 258.177 41.701 255.282C39.188 252.312 35.874 250.751 31.761 250.598C30.009 250.446 28.181 250.408 26.277 250.484C24.373 250.484 22.736 250.484 21.365 250.484C19.994 250.484 19.232 250.484 19.08 250.484C19.08 250.408 18.965 250.065 18.737 249.456C18.584 248.77 18.394 248.123 18.166 247.513C18.013 246.828 17.937 246.485 17.937 246.485ZM19.422 246.485V326.46H8.797V246.485H19.422ZM9.14001 318.12V326.46H0V325.317C0 325.317 0.227998 325.317 0.684998 325.317C1.218 325.317 1.48502 325.317 1.48502 325.317C3.46502 325.317 5.14099 324.632 6.51199 323.261C7.95899 321.814 8.721 320.1 8.797 318.12H9.14001ZM9.14001 254.825H8.797C8.721 252.845 7.95899 251.169 6.51199 249.798C5.14099 248.351 3.46502 247.628 1.48502 247.628C1.48502 247.628 1.218 247.628 0.684998 247.628C0.227998 247.628 0 247.628 0 247.628V246.485H9.14001V254.825ZM19.08 318.12H19.422C19.422 320.1 20.146 321.814 21.593 323.261C23.04 324.632 24.754 325.317 26.734 325.317C26.81 325.317 27.039 325.317 27.42 325.317C27.877 325.317 28.105 325.317 28.105 325.317V326.46H19.08V318.12ZM111.711 244.657L146.786 325.774H133.419L107.941 259.281L111.711 244.657ZM87.148 318.12C86.614 319.643 86.538 320.938 86.919 322.004C87.3 323.071 87.909 323.908 88.747 324.518C89.661 325.051 90.575 325.317 91.489 325.317H92.517V326.46H69.096V325.317C69.096 325.317 69.286 325.317 69.667 325.317C69.972 325.317 70.124 325.317 70.124 325.317C71.876 325.317 73.666 324.784 75.494 323.718C77.398 322.575 78.96 320.709 80.178 318.12H87.148ZM111.711 244.657L112.625 254.597L84.063 326.117H76.637L105.999 257.453C106.075 257.301 106.342 256.73 106.799 255.739C107.332 254.673 107.865 253.416 108.398 251.969C109.007 250.522 109.541 249.113 109.998 247.742C110.455 246.371 110.683 245.343 110.683 244.657H111.711ZM126.45 296.641V300.525H91.489V296.641H126.45ZM130.448 318.12H143.359C144.577 320.709 146.101 322.575 147.929 323.718C149.833 324.784 151.661 325.317 153.413 325.317C153.413 325.317 153.565 325.317 153.87 325.317C154.174 325.317 154.327 325.317 154.327 325.317V326.46H125.079V325.317H126.107C127.63 325.317 128.963 324.708 130.106 323.489C131.248 322.195 131.362 320.405 130.448 318.12ZM148.611 247.171H161.065L181.287 309.894L177.745 328.06L148.611 247.171ZM201.852 244.657L203.109 254.597L181.287 315.378C181.287 315.378 181.058 316.063 180.601 317.434C180.22 318.729 179.84 320.329 179.459 322.233C179.078 324.137 178.849 326.079 178.773 328.06H177.745L175.232 316.749L200.824 244.657H201.852ZM201.852 244.771L226.187 308.18L222.645 328.06L196.596 260.652L201.852 244.771ZM247.438 247.171L226.073 315.378C226.073 315.378 225.882 316.063 225.502 317.434C225.121 318.805 224.74 320.481 224.359 322.461C223.978 324.365 223.788 326.231 223.788 328.06H222.645L220.703 316.749L240.583 247.171H247.438ZM238.412 254.711C239.021 252.426 238.831 250.674 237.841 249.456C236.85 248.237 235.594 247.628 234.07 247.628H233.042V246.485H256.006V247.628C256.006 247.628 255.854 247.628 255.549 247.628C255.245 247.628 255.092 247.628 255.092 247.628C253.341 247.628 251.436 248.199 249.38 249.341C247.323 250.408 245.876 252.198 245.038 254.711H238.412ZM163.578 254.711H151.353C150.439 252.198 148.954 250.408 146.898 249.341C144.917 248.199 143.051 247.628 141.299 247.628C141.299 247.628 141.147 247.628 140.842 247.628C140.538 247.628 140.385 247.628 140.385 247.628V246.485H168.948V247.628H167.92C166.472 247.628 165.178 248.237 164.035 249.456C162.969 250.674 162.816 252.426 163.578 254.711ZM279.718 246.485V326.46H269.092V246.485H279.718ZM310.337 322.461L311.251 326.46H279.375V322.461H310.337ZM305.652 285.101V288.986H279.375V285.101H305.652ZM310.794 246.485V250.484H279.375V246.485H310.794ZM317.763 306.352L311.593 326.46H291.485L295.598 322.461C299.559 322.461 302.872 321.814 305.538 320.519C308.204 319.148 310.413 317.244 312.165 314.806C313.917 312.369 315.402 309.551 316.62 306.352H317.763ZM305.652 288.757V297.44H304.51V295.955C304.51 294.051 303.863 292.413 302.568 291.042C301.273 289.671 299.635 288.986 297.655 288.986V288.757H305.652ZM305.652 276.647V285.33H297.655V285.101C299.635 285.025 301.273 284.302 302.568 282.931C303.863 281.56 304.51 279.922 304.51 278.018V276.647H305.652ZM310.794 250.141V260.652H309.651V258.824C309.651 256.463 308.851 254.483 307.252 252.883C305.729 251.284 303.748 250.446 301.311 250.37V250.141H310.794ZM310.794 244.429V247.742L296.855 246.485C298.531 246.485 300.283 246.371 302.111 246.142C304.015 245.914 305.767 245.647 307.366 245.343C308.966 245.038 310.108 244.733 310.794 244.429ZM269.435 318.12V326.46H260.295V325.317C260.295 325.317 260.524 325.317 260.981 325.317C261.514 325.317 261.78 325.317 261.78 325.317C263.761 325.317 265.436 324.632 266.807 323.261C268.255 321.814 269.016 320.1 269.092 318.12H269.435ZM269.435 254.825H269.092C269.092 252.845 268.369 251.169 266.922 249.798C265.475 248.351 263.761 247.628 261.78 247.628C261.78 247.628 261.552 247.628 261.095 247.628C260.638 247.628 260.409 247.628 260.409 247.628L260.295 246.485H269.435V254.825Z" fill="#0A0A0A"/>
</svg>
