<svg width="500" height="500" viewBox="0 0 500 500" fill="none" xmlns="http://www.w3.org/2000/svg">
<g clip-path="url(#clip0_444_139)">
<path d="M500 0H0V500H500V0Z" fill="white"/>
<path d="M113.382 403.809C47.3211 345.134 27.8374 252.614 63.8302 171.549C83.4626 127.326 118.575 89.0105 161.335 66.1994C282.861 1.36961 426.695 86.7442 450.79 216.032C467.373 304.949 418.106 391.735 340.01 432.899C264.517 472.689 176.494 459.859 113.382 403.797V403.809ZM137.972 384.912C181.6 429.295 249.322 458.175 310.5 433.234C362.58 412.007 403.407 362.596 409.976 306.076C413.793 273.295 400.829 249.072 364.638 263.983C336.143 275.723 312.136 301.716 286.938 319.165C269.066 331.537 231.301 354.298 210.974 337.382C192.928 322.36 210.156 290.484 219.092 274.459C244.786 228.379 278.126 190.199 279.948 134.274C281.448 88.2303 256.783 56.8619 208.322 62.0012C141.604 69.0848 92.7707 140.156 82.3719 201.791C71.2791 267.599 91.1594 337.295 137.972 384.924V384.912ZM344.832 104.045C330.008 90.7938 310.847 79.2148 292.615 71.1653C287.149 68.7504 279.812 65.6421 273.8 67.0538C273.218 67.1901 272.97 67.9083 273.342 68.3789C277.395 73.6668 285.885 78.3232 291.128 84.0074C346.678 144.342 295.701 237.196 252.024 288.552C242.071 300.255 229.02 312.082 221.125 325.147C218.2 329.989 216.043 336.094 222.377 339.45C232.726 344.936 254.143 333.097 263.315 327.525C282.613 315.822 298.998 300.354 316.771 286.856C333.503 274.137 354.623 257.122 376.4 255.846C393.169 254.868 408.414 260.515 416.792 275.5C417.077 276.007 417.809 276.02 418.094 275.5C418.094 275.5 418.094 275.5 418.094 275.487C418.577 274.633 419.147 270.038 419.234 268.812C419.569 263.846 419.011 257.506 418.528 252.49C413.025 195.636 387.319 142.014 344.807 104.032L344.832 104.045Z" fill="#2B2B2B"/>
</g>
<defs>
<clipPath id="clip0_444_139">
<rect width="500" height="500" rx="250" fill="white"/>
</clipPath>
</defs>
</svg>
